<svg width="868" height="750" viewBox="0 0 868 750" fill="none" xmlns="http://www.w3.org/2000/svg">
<path fill-rule="evenodd" clip-rule="evenodd" d="M425.34 15L434 0L442.66 15L858.352 735L867.013 750H849.692H18.3078H0.987305L9.64756 735L425.34 15ZM26.9681 735L434 30L462.97 80.1775L235.597 474H304.879L497.611 140.178L525.378 188.27L360.412 474H418.147L554.245 238.27L578.764 280.739L467.185 474H513.373L601.858 320.739L621.651 355.021L552.958 474H587.6L638.971 385.021L653.538 410.251L616.732 474H639.826L665.085 430.251L675.424 448.159L660.505 474H672.053L681.198 458.159L841.032 735H26.9681ZM545 529H589.497V567.211H545V529ZM703.211 567.211H658.714V529H703.211V567.211ZM545 597.211H703.211V641.5V709H658.714V641.5H589.497V709H545V641.5V597.211ZM327.947 529H165V567.211H327.947V529ZM268.949 597.211H223.998V709H268.949V597.211ZM522 619C522 668.706 481.706 709 432 709C382.294 709 342 668.706 342 619C342 611.486 342.921 604.188 344.656 597.211H519.344C521.079 604.188 522 611.486 522 619ZM432 529C401.574 529 374.675 544.098 358.385 567.211H505.615C489.325 544.098 462.426 529 432 529Z" fill="url(#paint0_linear_24_116)"/>
<defs>
<linearGradient id="paint0_linear_24_116" x1="-38.2491" y1="595.489" x2="954.23" y2="343.46" gradientUnits="userSpaceOnUse">
<stop stop-color="#3E6988"/>
<stop offset="0.5" stop-color="#3DA077"/>
<stop offset="1" stop-color="#BC9D2D"/>
</linearGradient>
</defs>
</svg>
